<svg width="38" height="38" viewBox="0 0 38 38" fill="none" xmlns="http://www.w3.org/2000/svg">
<path d="M34.8334 25.6341C34.8334 31.3975 31.3975 34.8333 25.6342 34.8333H23.75C22.8792 34.8333 22.1667 34.1208 22.1667 33.25V24.1141C22.1667 23.6866 22.515 23.3225 22.9425 23.3225L25.7292 23.275C25.9509 23.2591 26.1409 23.1008 26.1884 22.8791L26.7425 19.855C26.79 19.57 26.5683 19.3008 26.2675 19.3008L22.895 19.3483C22.4517 19.3483 22.1034 19 22.0875 18.5725L22.0242 14.6933C22.0242 14.44 22.23 14.2183 22.4992 14.2183L26.2992 14.155C26.5683 14.155 26.7742 13.9491 26.7742 13.68L26.7108 9.87994C26.7108 9.61078 26.505 9.40496 26.2359 9.40496L21.9608 9.46831C19.3325 9.51581 17.2425 11.6691 17.29 14.2975L17.3692 18.6516C17.385 19.095 17.0367 19.4433 16.5934 19.4591L14.6934 19.4908C14.4242 19.4908 14.2184 19.6966 14.2184 19.9658L14.2659 22.9741C14.2659 23.2433 14.4717 23.4491 14.7408 23.4491L16.6409 23.4175C17.0842 23.4175 17.4325 23.7658 17.4483 24.1933L17.5908 33.2183C17.6067 34.105 16.8942 34.8333 16.0075 34.8333H12.3658C6.60252 34.8333 3.16669 31.3974 3.16669 25.6183V12.3658C3.16669 6.60246 6.60252 3.16663 12.3658 3.16663H25.6342C31.3975 3.16663 34.8334 6.60246 34.8334 12.3658V25.6341Z" fill="#F2AB1C"/>
</svg>
