<svg width="36" height="38" viewBox="0 0 36 38" fill="none" xmlns="http://www.w3.org/2000/svg">
<path d="M24.285 3.16663H11.715C6.255 3.16663 3 6.60246 3 12.3658V25.6183C3 31.3975 6.255 34.8333 11.715 34.8333H24.27C29.73 34.8333 32.985 31.3975 32.985 25.6341V12.3658C33 6.60246 29.745 3.16663 24.285 3.16663ZM18 25.1433C14.79 25.1433 12.18 22.3883 12.18 19C12.18 15.6116 14.79 12.8566 18 12.8566C21.21 12.8566 23.82 15.6116 23.82 19C23.82 22.3883 21.21 25.1433 18 25.1433ZM26.88 10.8933C26.805 11.0833 26.7 11.2575 26.565 11.4158C26.415 11.5583 26.25 11.6691 26.07 11.7483C25.89 11.8275 25.695 11.875 25.5 11.875C25.095 11.875 24.72 11.7166 24.435 11.4158C24.3 11.2575 24.195 11.0833 24.12 10.8933C24.045 10.7033 24 10.4975 24 10.2916C24 10.0858 24.045 9.87996 24.12 9.68996C24.195 9.48413 24.3 9.32579 24.435 9.16746C24.78 8.80329 25.305 8.62913 25.785 8.73996C25.89 8.75579 25.98 8.78746 26.07 8.83496C26.16 8.86663 26.25 8.91413 26.34 8.97746C26.415 9.02496 26.49 9.10413 26.565 9.16746C26.7 9.32579 26.805 9.48413 26.88 9.68996C26.955 9.87996 27 10.0858 27 10.2916C27 10.4975 26.955 10.7033 26.88 10.8933Z" fill="#F2AB1C"/>
</svg>
