<svg width="165" height="29" viewBox="0 0 165 29" fill="none" xmlns="http://www.w3.org/2000/svg">
<path d="M12.168 24C11.944 24 11.808 23.896 11.76 23.688L11.232 21.816C11.2 21.752 11.16 21.72 11.112 21.72H6.024C5.976 21.72 5.936 21.752 5.904 21.816L5.376 23.688C5.328 23.896 5.192 24 4.968 24H0.864C0.576 24 0.472 23.864 0.552 23.592L5.616 7.488C5.68 7.296 5.816 7.2 6.024 7.2H11.112C11.32 7.2 11.456 7.296 11.52 7.488L16.584 23.592C16.6 23.624 16.608 23.672 16.608 23.736C16.608 23.912 16.496 24 16.272 24H12.168ZM6.96 18.12C6.944 18.216 6.976 18.264 7.056 18.264H10.056C10.152 18.264 10.184 18.216 10.152 18.12L8.616 12.744C8.6 12.696 8.576 12.672 8.544 12.672C8.512 12.672 8.488 12.696 8.472 12.744L6.96 18.12ZM25.0999 11.52C25.2119 11.52 25.2999 11.552 25.3639 11.616C25.4279 11.68 25.4599 11.768 25.4599 11.88V14.76C25.4599 14.872 25.4279 14.96 25.3639 15.024C25.2999 15.088 25.2119 15.12 25.0999 15.12H22.9879C22.9079 15.12 22.8679 15.16 22.8679 15.24V23.64C22.8679 23.752 22.8359 23.84 22.7719 23.904C22.7079 23.968 22.6199 24 22.5079 24H18.7159C18.6039 24 18.5159 23.968 18.4519 23.904C18.3879 23.84 18.3559 23.752 18.3559 23.64V15.24C18.3559 15.16 18.3159 15.12 18.2359 15.12H17.0119C16.8999 15.12 16.8119 15.088 16.7479 15.024C16.6839 14.96 16.6519 14.872 16.6519 14.76V11.88C16.6519 11.768 16.6839 11.68 16.7479 11.616C16.8119 11.552 16.8999 11.52 17.0119 11.52H18.2359C18.3159 11.52 18.3559 11.48 18.3559 11.4V10.656C18.3559 9.424 18.6999 8.536 19.3879 7.992C20.0919 7.448 21.2439 7.176 22.8439 7.176C23.2439 7.176 23.5479 7.184 23.7559 7.2H24.7639C24.8759 7.2 24.9639 7.232 25.0279 7.296C25.0919 7.36 25.1239 7.448 25.1239 7.56V9.84C25.1239 9.952 25.0919 10.04 25.0279 10.104C24.9639 10.168 24.8759 10.2 24.7639 10.2H23.7559C23.4359 10.232 23.2039 10.32 23.0599 10.464C22.9319 10.592 22.8679 10.792 22.8679 11.064V11.4C22.8679 11.48 22.9079 11.52 22.9879 11.52H25.0999ZM33.7453 11.352C34.2893 11.352 34.7213 11.456 35.0413 11.664C35.1853 11.744 35.2413 11.896 35.2093 12.12L34.6333 15.816C34.6173 15.944 34.5693 16.024 34.4893 16.056C34.4253 16.088 34.3293 16.088 34.2013 16.056C33.9133 15.992 33.6573 15.96 33.4333 15.96C33.1933 15.96 32.9693 15.984 32.7613 16.032C32.3453 16.112 31.9853 16.288 31.6813 16.56C31.3933 16.816 31.2493 17.168 31.2493 17.616V23.64C31.2493 23.752 31.2173 23.84 31.1533 23.904C31.0893 23.968 31.0013 24 30.8893 24H27.0973C26.9853 24 26.8973 23.968 26.8333 23.904C26.7693 23.84 26.7373 23.752 26.7373 23.64V11.88C26.7373 11.768 26.7693 11.68 26.8333 11.616C26.8973 11.552 26.9853 11.52 27.0973 11.52H30.8893C31.0013 11.52 31.0893 11.552 31.1533 11.616C31.2173 11.68 31.2493 11.768 31.2493 11.88V12.456C31.2493 12.504 31.2653 12.536 31.2973 12.552C31.3293 12.568 31.3533 12.56 31.3693 12.528C31.9773 11.744 32.7693 11.352 33.7453 11.352ZM41.4894 11.328C42.5774 11.328 43.5774 11.512 44.4894 11.88C45.4014 12.248 46.1214 12.752 46.6494 13.392C47.1774 14.032 47.4414 14.728 47.4414 15.48V23.64C47.4414 23.752 47.4094 23.84 47.3454 23.904C47.2814 23.968 47.1934 24 47.0814 24H43.2894C43.1774 24 43.0894 23.968 43.0254 23.904C42.9614 23.84 42.9294 23.752 42.9294 23.64V22.8C42.9294 22.736 42.9134 22.704 42.8814 22.704C42.8654 22.688 42.8414 22.704 42.8094 22.752C42.5374 23.248 42.1614 23.616 41.6814 23.856C41.2014 24.08 40.5694 24.192 39.7854 24.192C38.4734 24.192 37.4414 23.896 36.6894 23.304C35.9374 22.696 35.5614 21.816 35.5614 20.664C35.5614 19.448 35.9854 18.512 36.8334 17.856C37.6974 17.2 38.9454 16.872 40.5774 16.872H42.8094C42.8894 16.872 42.9294 16.832 42.9294 16.752V16.32C42.9294 15.984 42.8014 15.712 42.5454 15.504C42.3054 15.296 41.9774 15.192 41.5614 15.192C41.2734 15.192 41.0174 15.24 40.7934 15.336C40.5694 15.432 40.4094 15.56 40.3134 15.72C40.2494 15.832 40.1854 15.912 40.1214 15.96C40.0734 15.992 40.0014 16 39.9054 15.984L36.0414 15.504C35.8174 15.472 35.7054 15.376 35.7054 15.216C35.7694 14.496 36.0574 13.84 36.5694 13.248C37.0814 12.656 37.7614 12.192 38.6094 11.856C39.4734 11.504 40.4334 11.328 41.4894 11.328ZM41.1774 21.072C41.6894 21.072 42.1054 20.936 42.4254 20.664C42.7614 20.392 42.9294 20.024 42.9294 19.56V19.248C42.9294 19.168 42.8894 19.128 42.8094 19.128H41.6094C40.6014 19.128 40.0974 19.456 40.0974 20.112C40.0974 20.4 40.1854 20.632 40.3614 20.808C40.5534 20.984 40.8254 21.072 41.1774 21.072ZM54.6184 24.192C52.8104 24.192 51.3784 23.84 50.3224 23.136C49.2824 22.432 48.7624 21.496 48.7624 20.328V20.112C48.7624 20 48.7944 19.912 48.8584 19.848C48.9224 19.784 49.0104 19.752 49.1224 19.752H52.7224C52.9624 19.752 53.0824 19.84 53.0824 20.016C53.0824 20.272 53.2184 20.48 53.4904 20.64C53.7784 20.8 54.1464 20.88 54.5944 20.88C54.9464 20.88 55.2264 20.832 55.4344 20.736C55.6584 20.624 55.7704 20.472 55.7704 20.28C55.7704 20.056 55.6424 19.904 55.3864 19.824C55.1304 19.728 54.6744 19.624 54.0184 19.512C53.4104 19.432 52.8664 19.336 52.3864 19.224C51.9064 19.112 51.4424 18.944 50.9944 18.72C49.6184 18.048 48.9304 16.992 48.9304 15.552C48.9304 14.256 49.4344 13.232 50.4424 12.48C51.4504 11.712 52.7784 11.328 54.4264 11.328C55.5464 11.328 56.5224 11.512 57.3544 11.88C58.2024 12.232 58.8584 12.736 59.3224 13.392C59.7864 14.048 60.0184 14.808 60.0184 15.672C60.0184 15.848 59.8984 15.936 59.6584 15.936H56.1784C55.9384 15.936 55.8184 15.848 55.8184 15.672C55.8184 15.4 55.6984 15.192 55.4584 15.048C55.2184 14.888 54.8984 14.808 54.4984 14.808C54.1304 14.808 53.8264 14.872 53.5864 15C53.3624 15.112 53.2504 15.272 53.2504 15.48C53.2504 15.736 53.4024 15.912 53.7064 16.008C54.0104 16.104 54.4984 16.2 55.1704 16.296C55.2504 16.312 55.5544 16.36 56.0824 16.44C56.6264 16.52 57.1464 16.648 57.6424 16.824C58.5064 17.128 59.1624 17.552 59.6104 18.096C60.0744 18.624 60.3064 19.32 60.3064 20.184C60.3064 21.496 59.7944 22.496 58.7704 23.184C57.7464 23.856 56.3624 24.192 54.6184 24.192ZM63.7283 10.68C63.0723 10.68 62.5283 10.472 62.0963 10.056C61.6803 9.624 61.4723 9.08 61.4723 8.424C61.4723 7.752 61.6803 7.208 62.0963 6.792C62.5283 6.376 63.0723 6.168 63.7283 6.168C64.3843 6.168 64.9203 6.376 65.3363 6.792C65.7683 7.208 65.9843 7.752 65.9843 8.424C65.9843 9.064 65.7683 9.6 65.3363 10.032C64.9203 10.464 64.3843 10.68 63.7283 10.68ZM61.8083 24C61.6963 24 61.6083 23.968 61.5443 23.904C61.4803 23.84 61.4482 23.752 61.4482 23.64V11.88C61.4482 11.768 61.4803 11.68 61.5443 11.616C61.6083 11.552 61.6963 11.52 61.8083 11.52H65.6003C65.7123 11.52 65.8003 11.552 65.8643 11.616C65.9283 11.68 65.9603 11.768 65.9603 11.88V23.64C65.9603 23.752 65.9283 23.84 65.8643 23.904C65.8003 23.968 65.7123 24 65.6003 24H61.8083ZM72.966 11.328C74.054 11.328 75.054 11.512 75.966 11.88C76.878 12.248 77.598 12.752 78.126 13.392C78.654 14.032 78.918 14.728 78.918 15.48V23.64C78.918 23.752 78.886 23.84 78.822 23.904C78.758 23.968 78.67 24 78.558 24H74.766C74.654 24 74.566 23.968 74.502 23.904C74.438 23.84 74.406 23.752 74.406 23.64V22.8C74.406 22.736 74.39 22.704 74.358 22.704C74.342 22.688 74.318 22.704 74.286 22.752C74.014 23.248 73.638 23.616 73.158 23.856C72.678 24.08 72.046 24.192 71.262 24.192C69.95 24.192 68.918 23.896 68.166 23.304C67.414 22.696 67.038 21.816 67.038 20.664C67.038 19.448 67.462 18.512 68.31 17.856C69.174 17.2 70.422 16.872 72.054 16.872H74.286C74.366 16.872 74.406 16.832 74.406 16.752V16.32C74.406 15.984 74.278 15.712 74.022 15.504C73.782 15.296 73.454 15.192 73.038 15.192C72.75 15.192 72.494 15.24 72.27 15.336C72.046 15.432 71.886 15.56 71.79 15.72C71.726 15.832 71.662 15.912 71.598 15.96C71.55 15.992 71.478 16 71.382 15.984L67.518 15.504C67.294 15.472 67.182 15.376 67.182 15.216C67.246 14.496 67.534 13.84 68.046 13.248C68.558 12.656 69.238 12.192 70.086 11.856C70.95 11.504 71.91 11.328 72.966 11.328ZM72.654 21.072C73.166 21.072 73.582 20.936 73.902 20.664C74.238 20.392 74.406 20.024 74.406 19.56V19.248C74.406 19.168 74.366 19.128 74.286 19.128H73.086C72.078 19.128 71.574 19.456 71.574 20.112C71.574 20.4 71.662 20.632 71.838 20.808C72.03 20.984 72.302 21.072 72.654 21.072ZM92.5509 14.64C92.9029 15.536 93.0789 16.56 93.0789 17.712C93.0789 18.704 92.9589 19.6 92.7189 20.4C92.3669 21.568 91.7589 22.496 90.8949 23.184C90.0469 23.856 89.0869 24.192 88.0149 24.192C86.7509 24.192 85.8229 23.752 85.2309 22.872C85.1989 22.824 85.1669 22.808 85.1349 22.824C85.1029 22.84 85.0869 22.872 85.0869 22.92V23.64C85.0869 23.752 85.0549 23.84 84.9909 23.904C84.9269 23.968 84.8389 24 84.7269 24H80.9349C80.8229 24 80.7349 23.968 80.6709 23.904C80.6069 23.84 80.5749 23.752 80.5749 23.64V7.56C80.5749 7.448 80.6069 7.36 80.6709 7.296C80.7349 7.232 80.8229 7.2 80.9349 7.2H84.7269C84.8389 7.2 84.9269 7.232 84.9909 7.296C85.0549 7.36 85.0869 7.448 85.0869 7.56V12.384C85.0869 12.432 85.1029 12.464 85.1349 12.48C85.1669 12.48 85.1989 12.464 85.2309 12.432C85.7909 11.696 86.6549 11.328 87.8229 11.328C88.9589 11.328 89.9349 11.64 90.7509 12.264C91.5669 12.872 92.1669 13.664 92.5509 14.64ZM87.9909 19.536C88.2309 19.072 88.3509 18.488 88.3509 17.784C88.3509 17.032 88.2309 16.432 87.9909 15.984C87.7189 15.456 87.2949 15.192 86.7189 15.192C86.1749 15.192 85.7589 15.44 85.4709 15.936C85.2149 16.4 85.0869 17.016 85.0869 17.784C85.0869 18.488 85.2069 19.064 85.4469 19.512C85.7349 20.056 86.1589 20.328 86.7189 20.328C87.2789 20.328 87.7029 20.064 87.9909 19.536ZM111.902 7.2C112.014 7.2 112.102 7.232 112.166 7.296C112.23 7.36 112.262 7.448 112.262 7.56V10.728C112.262 10.84 112.23 10.928 112.166 10.992C112.102 11.056 112.014 11.088 111.902 11.088H107.87C107.79 11.088 107.75 11.128 107.75 11.208V23.64C107.75 23.752 107.718 23.84 107.654 23.904C107.59 23.968 107.502 24 107.39 24H103.598C103.486 24 103.398 23.968 103.334 23.904C103.27 23.84 103.238 23.752 103.238 23.64V11.208C103.238 11.128 103.198 11.088 103.118 11.088H99.2061C99.0941 11.088 99.0061 11.056 98.9421 10.992C98.8781 10.928 98.8461 10.84 98.8461 10.728V7.56C98.8461 7.448 98.8781 7.36 98.9421 7.296C99.0061 7.232 99.0941 7.2 99.2061 7.2H111.902ZM119.058 11.352C119.602 11.352 120.034 11.456 120.354 11.664C120.498 11.744 120.554 11.896 120.522 12.12L119.946 15.816C119.93 15.944 119.882 16.024 119.802 16.056C119.738 16.088 119.642 16.088 119.514 16.056C119.226 15.992 118.97 15.96 118.746 15.96C118.506 15.96 118.282 15.984 118.074 16.032C117.658 16.112 117.298 16.288 116.994 16.56C116.706 16.816 116.562 17.168 116.562 17.616V23.64C116.562 23.752 116.53 23.84 116.466 23.904C116.402 23.968 116.314 24 116.202 24H112.41C112.298 24 112.21 23.968 112.146 23.904C112.082 23.84 112.05 23.752 112.05 23.64V11.88C112.05 11.768 112.082 11.68 112.146 11.616C112.21 11.552 112.298 11.52 112.41 11.52H116.202C116.314 11.52 116.402 11.552 116.466 11.616C116.53 11.68 116.562 11.768 116.562 11.88V12.456C116.562 12.504 116.578 12.536 116.61 12.552C116.642 12.568 116.666 12.56 116.682 12.528C117.29 11.744 118.082 11.352 119.058 11.352ZM126.802 11.328C127.89 11.328 128.89 11.512 129.802 11.88C130.714 12.248 131.434 12.752 131.962 13.392C132.49 14.032 132.754 14.728 132.754 15.48V23.64C132.754 23.752 132.722 23.84 132.658 23.904C132.594 23.968 132.506 24 132.394 24H128.602C128.49 24 128.402 23.968 128.338 23.904C128.274 23.84 128.242 23.752 128.242 23.64V22.8C128.242 22.736 128.226 22.704 128.194 22.704C128.178 22.688 128.154 22.704 128.122 22.752C127.85 23.248 127.474 23.616 126.994 23.856C126.514 24.08 125.882 24.192 125.098 24.192C123.786 24.192 122.754 23.896 122.002 23.304C121.25 22.696 120.874 21.816 120.874 20.664C120.874 19.448 121.298 18.512 122.146 17.856C123.01 17.2 124.258 16.872 125.89 16.872H128.122C128.202 16.872 128.242 16.832 128.242 16.752V16.32C128.242 15.984 128.114 15.712 127.858 15.504C127.618 15.296 127.29 15.192 126.874 15.192C126.586 15.192 126.33 15.24 126.106 15.336C125.882 15.432 125.722 15.56 125.626 15.72C125.562 15.832 125.498 15.912 125.434 15.96C125.386 15.992 125.314 16 125.218 15.984L121.354 15.504C121.13 15.472 121.018 15.376 121.018 15.216C121.082 14.496 121.37 13.84 121.882 13.248C122.394 12.656 123.074 12.192 123.922 11.856C124.786 11.504 125.746 11.328 126.802 11.328ZM126.49 21.072C127.002 21.072 127.418 20.936 127.738 20.664C128.074 20.392 128.242 20.024 128.242 19.56V19.248C128.242 19.168 128.202 19.128 128.122 19.128H126.922C125.914 19.128 125.41 19.456 125.41 20.112C125.41 20.4 125.498 20.632 125.674 20.808C125.866 20.984 126.138 21.072 126.49 21.072ZM137.566 24C137.358 24 137.222 23.904 137.158 23.712L133.486 11.928C133.47 11.896 133.462 11.848 133.462 11.784C133.462 11.608 133.574 11.52 133.798 11.52H137.926C138.15 11.52 138.286 11.624 138.334 11.832L139.606 17.784C139.622 17.848 139.646 17.88 139.678 17.88C139.71 17.88 139.734 17.848 139.75 17.784L141.022 11.832C141.07 11.624 141.206 11.52 141.43 11.52L145.558 11.568C145.686 11.568 145.774 11.608 145.822 11.688C145.886 11.752 145.902 11.848 145.87 11.976L142.222 23.712C142.158 23.904 142.022 24 141.814 24H137.566ZM158.01 16.872C158.058 17.224 158.082 17.584 158.082 17.952C158.082 18.208 158.074 18.408 158.058 18.552C158.058 18.776 157.938 18.888 157.698 18.888H150.498C150.434 18.888 150.402 18.92 150.402 18.984C150.402 19.128 150.466 19.296 150.594 19.488C150.754 19.76 151.034 19.992 151.434 20.184C151.85 20.36 152.314 20.448 152.826 20.448C153.258 20.448 153.658 20.384 154.026 20.256C154.394 20.128 154.706 19.944 154.962 19.704C155.042 19.64 155.122 19.608 155.202 19.608C155.314 19.608 155.402 19.656 155.466 19.752L157.29 22.08C157.354 22.16 157.386 22.248 157.386 22.344C157.386 22.44 157.346 22.52 157.266 22.584C156.706 23.128 156.01 23.536 155.178 23.808C154.346 24.064 153.45 24.192 152.49 24.192C151.002 24.192 149.73 23.88 148.674 23.256C147.618 22.632 146.85 21.744 146.37 20.592C146.018 19.76 145.842 18.864 145.842 17.904C145.842 16.896 145.986 16 146.274 15.216C146.706 14 147.418 13.048 148.41 12.36C149.402 11.672 150.57 11.328 151.914 11.328C152.938 11.328 153.882 11.568 154.746 12.048C155.626 12.528 156.346 13.192 156.906 14.04C157.482 14.872 157.85 15.816 158.01 16.872ZM151.89 15.192C151.234 15.192 150.778 15.512 150.522 16.152L150.426 16.416C150.41 16.464 150.418 16.504 150.45 16.536C150.482 16.552 150.514 16.56 150.546 16.56H153.282C153.346 16.56 153.378 16.528 153.378 16.464C153.378 16.4 153.354 16.296 153.306 16.152C153.226 15.848 153.058 15.616 152.802 15.456C152.562 15.28 152.258 15.192 151.89 15.192ZM159.636 24C159.524 24 159.436 23.968 159.372 23.904C159.308 23.84 159.276 23.752 159.276 23.64V7.56C159.276 7.448 159.308 7.36 159.372 7.296C159.436 7.232 159.524 7.2 159.636 7.2H163.428C163.54 7.2 163.628 7.232 163.692 7.296C163.756 7.36 163.788 7.448 163.788 7.56V23.64C163.788 23.752 163.756 23.84 163.692 23.904C163.628 23.968 163.54 24 163.428 24H159.636Z" fill="#112B3C"/>
<circle cx="63.5" cy="8.5" r="2.5" fill="#FFBD39"/>
</svg>
