<svg width="17" height="16" viewBox="0 0 17 16" fill="none" xmlns="http://www.w3.org/2000/svg">
<path d="M9.03475 2.35749L10.1354 4.33758C10.2862 4.60937 10.6647 4.86757 10.976 4.90247L12.8287 5.13415C14.015 5.27993 14.3209 6.11743 13.5136 6.99466L12.1382 8.48078C11.9086 8.72983 11.7894 9.20494 11.8816 9.53104L12.3635 11.2807C12.7426 12.662 12.0217 13.2346 10.755 12.5561L8.98535 11.6081C8.66306 11.4348 8.15112 11.46 7.84834 11.6546L6.16373 12.7393C4.95779 13.5146 4.19041 13.0042 4.45503 11.5978L4.79388 9.81787C4.85714 9.48516 4.70547 9.02087 4.45512 8.79246L2.95304 7.422C2.07642 6.6159 2.31222 5.75675 3.48036 5.51317L5.30432 5.13416C5.61214 5.06764 5.96887 4.78694 6.09411 4.50134L7.02858 2.43449C7.53936 1.32091 8.4405 1.28582 9.03475 2.35749Z" fill="#FFBD39"/>
</svg>
